<?xml version="1.0" encoding="utf-8"?>
<svg version="1.1" xmlns:xlink="http://www.w3.org/1999/xlink" width="16px" height="16px" xmlns="http://www.w3.org/2000/svg">
  <defs>
    <pattern id="BGPattern" patternUnits="userSpaceOnUse" alignment="0 0" imageRepeat="None" />
    <mask fill="white" id="Clip67">
      <path d="M 13.647999999999996 16  C 14.944000000000003 16  16 14.944000000000003  16 13.647999999999996  L 16 2.3520000000000003  C 16 1.056000000000001  14.944000000000003 0  13.647999999999996 0  L 2.352000000000004 0  C 1.0559999999999974 0  0 1.056000000000001  0 2.3520000000000003  L 0 13.647999999999996  C 0 14.944000000000003  1.0559999999999974 16  2.352000000000004 16  L 13.647999999999996 16  Z M 4.192000000000007 7.608000000000004  C 4.192000000000007 5.927999999999997  5.896000000000001 4.567999999999998  8 4.567999999999998  C 10.104 4.567999999999998  11.807999999999993 5.927999999999997  11.807999999999993 7.608000000000004  C 11.807999999999993 9.287999999999997  10.104 10.647999999999996  8 10.647999999999996  C 7.8799999999999955 10.647999999999996  7.760000000000005 10.64  7.640000000000001 10.631999999999998  C 6.944000000000003 11.32  5.775999999999996 11.432000000000002  5.775999999999996 11.432000000000002  C 6.128 11.143999999999998  6.376000000000005 10.775999999999996  6.543999999999997 10.415999999999997  C 5.159999999999997 9.96  4.192000000000007 8.872  4.192000000000007 7.608000000000004  Z M 8.120000000000005 8.608000000000004  C 8.120000000000005 8.472000000000001  8.016000000000005 8.368000000000002  7.8799999999999955 8.375  L 6.591999999999999 8.375  C 6.456000000000003 8.368000000000002  6.352000000000004 8.472000000000001  6.352000000000004 8.608000000000004  C 6.352000000000004 8.744  6.456000000000003 8.847999999999999  6.591999999999999 8.847999999999999  L 7.8799999999999955 8.847999999999999  C 8.007999999999996 8.847999999999999  8.120000000000005 8.744  8.120000000000005 8.608000000000004  Z M 8.855999999999995 7.607999999999997  C 8.855999999999995 7.472000000000001  8.751999999999995 7.368000000000002  8.616 7.375  L 6.591999999999999 7.375  C 6.456000000000003 7.368000000000002  6.352000000000004 7.472000000000001  6.352000000000004 7.607999999999997  C 6.352000000000004 7.744  6.456000000000003 7.847999999999999  6.591999999999999 7.847999999999999  L 8.608000000000004 7.847999999999999  C 8.744 7.847999999999999  8.855999999999995 7.744  8.855999999999995 7.607999999999997  Z M 9.656000000000006 6.607999999999997  C 9.656000000000006 6.472000000000001  9.551999999999992 6.368000000000002  9.415999999999997 6.375  L 6.591999999999999 6.375  C 6.456000000000003 6.368000000000002  6.352000000000004 6.472000000000001  6.352000000000004 6.607999999999997  C 6.352000000000004 6.744  6.456000000000003 6.847999999999999  6.591999999999999 6.875  L 9.408000000000001 6.875  C 9.543999999999997 6.847999999999999  9.656000000000006 6.744  9.656000000000006 6.607999999999997  Z " fill-rule="evenodd" />
    </mask>
  </defs>
  <g transform="matrix(1 0 0 1 -730 -837 )">
    <path d="M 13.647999999999996 16  C 14.944000000000003 16  16 14.944000000000003  16 13.647999999999996  L 16 2.3520000000000003  C 16 1.056000000000001  14.944000000000003 0  13.647999999999996 0  L 2.352000000000004 0  C 1.0559999999999974 0  0 1.056000000000001  0 2.3520000000000003  L 0 13.647999999999996  C 0 14.944000000000003  1.0559999999999974 16  2.352000000000004 16  L 13.647999999999996 16  Z M 4.192000000000007 7.608000000000004  C 4.192000000000007 5.927999999999997  5.896000000000001 4.567999999999998  8 4.567999999999998  C 10.104 4.567999999999998  11.807999999999993 5.927999999999997  11.807999999999993 7.608000000000004  C 11.807999999999993 9.287999999999997  10.104 10.647999999999996  8 10.647999999999996  C 7.8799999999999955 10.647999999999996  7.760000000000005 10.64  7.640000000000001 10.631999999999998  C 6.944000000000003 11.32  5.775999999999996 11.432000000000002  5.775999999999996 11.432000000000002  C 6.128 11.143999999999998  6.376000000000005 10.775999999999996  6.543999999999997 10.415999999999997  C 5.159999999999997 9.96  4.192000000000007 8.872  4.192000000000007 7.608000000000004  Z M 8.120000000000005 8.608000000000004  C 8.120000000000005 8.472000000000001  8.016000000000005 8.368000000000002  7.8799999999999955 8.375  L 6.591999999999999 8.375  C 6.456000000000003 8.368000000000002  6.352000000000004 8.472000000000001  6.352000000000004 8.608000000000004  C 6.352000000000004 8.744  6.456000000000003 8.847999999999999  6.591999999999999 8.847999999999999  L 7.8799999999999955 8.847999999999999  C 8.007999999999996 8.847999999999999  8.120000000000005 8.744  8.120000000000005 8.608000000000004  Z M 8.855999999999995 7.607999999999997  C 8.855999999999995 7.472000000000001  8.751999999999995 7.368000000000002  8.616 7.375  L 6.591999999999999 7.375  C 6.456000000000003 7.368000000000002  6.352000000000004 7.472000000000001  6.352000000000004 7.607999999999997  C 6.352000000000004 7.744  6.456000000000003 7.847999999999999  6.591999999999999 7.847999999999999  L 8.608000000000004 7.847999999999999  C 8.744 7.847999999999999  8.855999999999995 7.744  8.855999999999995 7.607999999999997  Z M 9.656000000000006 6.607999999999997  C 9.656000000000006 6.472000000000001  9.551999999999992 6.368000000000002  9.415999999999997 6.375  L 6.591999999999999 6.375  C 6.456000000000003 6.368000000000002  6.352000000000004 6.472000000000001  6.352000000000004 6.607999999999997  C 6.352000000000004 6.744  6.456000000000003 6.847999999999999  6.591999999999999 6.875  L 9.408000000000001 6.875  C 9.543999999999997 6.847999999999999  9.656000000000006 6.744  9.656000000000006 6.607999999999997  Z " fill-rule="nonzero" fill="rgba(239, 75, 88, 1)" stroke="none" transform="matrix(1 0 0 1 730 837 )" class="fill" />
    <path d="M 13.647999999999996 16  C 14.944000000000003 16  16 14.944000000000003  16 13.647999999999996  L 16 2.3520000000000003  C 16 1.056000000000001  14.944000000000003 0  13.647999999999996 0  L 2.352000000000004 0  C 1.0559999999999974 0  0 1.056000000000001  0 2.3520000000000003  L 0 13.647999999999996  C 0 14.944000000000003  1.0559999999999974 16  2.352000000000004 16  L 13.647999999999996 16  Z " stroke-width="0" stroke-dasharray="0" stroke="rgba(255, 255, 255, 0)" fill="none" transform="matrix(1 0 0 1 730 837 )" class="stroke" mask="url(#Clip67)" />
    <path d="M 4.192000000000007 7.608000000000004  C 4.192000000000007 5.927999999999997  5.896000000000001 4.567999999999998  8 4.567999999999998  C 10.104 4.567999999999998  11.807999999999993 5.927999999999997  11.807999999999993 7.608000000000004  C 11.807999999999993 9.287999999999997  10.104 10.647999999999996  8 10.647999999999996  C 7.8799999999999955 10.647999999999996  7.760000000000005 10.64  7.640000000000001 10.631999999999998  C 6.944000000000003 11.32  5.775999999999996 11.432000000000002  5.775999999999996 11.432000000000002  C 6.128 11.143999999999998  6.376000000000005 10.775999999999996  6.543999999999997 10.415999999999997  C 5.159999999999997 9.96  4.192000000000007 8.872  4.192000000000007 7.608000000000004  Z " stroke-width="0" stroke-dasharray="0" stroke="rgba(255, 255, 255, 0)" fill="none" transform="matrix(1 0 0 1 730 837 )" class="stroke" mask="url(#Clip67)" />
    <path d="M 8.120000000000005 8.608000000000004  C 8.120000000000005 8.472000000000001  8.016000000000005 8.368000000000002  7.8799999999999955 8.375  L 6.591999999999999 8.375  C 6.456000000000003 8.368000000000002  6.352000000000004 8.472000000000001  6.352000000000004 8.608000000000004  C 6.352000000000004 8.744  6.456000000000003 8.847999999999999  6.591999999999999 8.847999999999999  L 7.8799999999999955 8.847999999999999  C 8.007999999999996 8.847999999999999  8.120000000000005 8.744  8.120000000000005 8.608000000000004  Z " stroke-width="0" stroke-dasharray="0" stroke="rgba(255, 255, 255, 0)" fill="none" transform="matrix(1 0 0 1 730 837 )" class="stroke" mask="url(#Clip67)" />
    <path d="M 8.855999999999995 7.607999999999997  C 8.855999999999995 7.472000000000001  8.751999999999995 7.368000000000002  8.616 7.375  L 6.591999999999999 7.375  C 6.456000000000003 7.368000000000002  6.352000000000004 7.472000000000001  6.352000000000004 7.607999999999997  C 6.352000000000004 7.744  6.456000000000003 7.847999999999999  6.591999999999999 7.847999999999999  L 8.608000000000004 7.847999999999999  C 8.744 7.847999999999999  8.855999999999995 7.744  8.855999999999995 7.607999999999997  Z " stroke-width="0" stroke-dasharray="0" stroke="rgba(255, 255, 255, 0)" fill="none" transform="matrix(1 0 0 1 730 837 )" class="stroke" mask="url(#Clip67)" />
    <path d="M 9.656000000000006 6.607999999999997  C 9.656000000000006 6.472000000000001  9.551999999999992 6.368000000000002  9.415999999999997 6.375  L 6.591999999999999 6.375  C 6.456000000000003 6.368000000000002  6.352000000000004 6.472000000000001  6.352000000000004 6.607999999999997  C 6.352000000000004 6.744  6.456000000000003 6.847999999999999  6.591999999999999 6.875  L 9.408000000000001 6.875  C 9.543999999999997 6.847999999999999  9.656000000000006 6.744  9.656000000000006 6.607999999999997  Z " stroke-width="0" stroke-dasharray="0" stroke="rgba(255, 255, 255, 0)" fill="none" transform="matrix(1 0 0 1 730 837 )" class="stroke" mask="url(#Clip67)" />
  </g>
</svg>