<?xml version="1.0" encoding="utf-8"?>
<svg version="1.1" xmlns:xlink="http://www.w3.org/1999/xlink" width="16px" height="16px" xmlns="http://www.w3.org/2000/svg">
  <defs>
    <pattern id="BGPattern" patternUnits="userSpaceOnUse" alignment="0 0" imageRepeat="None" />
    <mask fill="white" id="Clip66">
      <path d="M 2.2857142857142856 0  L 13.714285714285714 0  C 14.976650856756098 0  16 1.0233491432439006  16 2.2857142857142856  L 16 13.714285714285714  C 16 14.976650856756098  14.976650856756098 16  13.714285714285714 16  L 2.2857142857142856 16  C 1.0233491432439006 16  0 14.976650856756098  0 13.714285714285714  L 0 2.2857142857142856  C 0 1.0233491432439006  1.0233491432439006 0  2.2857142857142856 0  Z M 11.946285714285713 10.910857142857143  L 11.428571428571429 9.142857142857142  L 10.910857142857143 10.910857142857143  L 9.142857142857142 11.428571428571429  L 10.910857142857143 11.946285714285713  L 11.428571428571429 13.714285714285714  L 11.946285714285713 11.946285714285713  L 13.714285714285714 11.428571428571429  L 11.946285714285713 10.910857142857143  Z M 6.748571428571428 5.822857142857143  L 5.714285714285714 2.2857142857142856  L 4.68 5.822857142857144  L 1.1428571428571428 6.857142857142857  L 4.680000000000001 7.8914285714285715  L 5.714285714285714 11.428571428571429  L 6.748571428571429 7.891428571428571  L 10.285714285714286 6.857142857142857  L 6.748571428571428 5.822857142857143  Z " fill-rule="evenodd" />
    </mask>
  </defs>
  <g transform="matrix(1 0 0 1 -618 -837 )">
    <path d="M 2.2857142857142856 0  L 13.714285714285714 0  C 14.976650856756098 0  16 1.0233491432439006  16 2.2857142857142856  L 16 13.714285714285714  C 16 14.976650856756098  14.976650856756098 16  13.714285714285714 16  L 2.2857142857142856 16  C 1.0233491432439006 16  0 14.976650856756098  0 13.714285714285714  L 0 2.2857142857142856  C 0 1.0233491432439006  1.0233491432439006 0  2.2857142857142856 0  Z M 11.946285714285713 10.910857142857143  L 11.428571428571429 9.142857142857142  L 10.910857142857143 10.910857142857143  L 9.142857142857142 11.428571428571429  L 10.910857142857143 11.946285714285713  L 11.428571428571429 13.714285714285714  L 11.946285714285713 11.946285714285713  L 13.714285714285714 11.428571428571429  L 11.946285714285713 10.910857142857143  Z M 6.748571428571428 5.822857142857143  L 5.714285714285714 2.2857142857142856  L 4.68 5.822857142857144  L 1.1428571428571428 6.857142857142857  L 4.680000000000001 7.8914285714285715  L 5.714285714285714 11.428571428571429  L 6.748571428571429 7.891428571428571  L 10.285714285714286 6.857142857142857  L 6.748571428571428 5.822857142857143  Z " fill-rule="nonzero" fill="rgba(239, 75, 88, 1)" stroke="none" transform="matrix(1 0 0 1 618 837 )" class="fill" />
    <path d="M 2.2857142857142856 0  L 13.714285714285714 0  C 14.976650856756098 0  16 1.0233491432439006  16 2.2857142857142856  L 16 13.714285714285714  C 16 14.976650856756098  14.976650856756098 16  13.714285714285714 16  L 2.2857142857142856 16  C 1.0233491432439006 16  0 14.976650856756098  0 13.714285714285714  L 0 2.2857142857142856  C 0 1.0233491432439006  1.0233491432439006 0  2.2857142857142856 0  Z " stroke-width="0" stroke-dasharray="0" stroke="rgba(255, 255, 255, 0)" fill="none" transform="matrix(1 0 0 1 618 837 )" class="stroke" mask="url(#Clip66)" />
    <path d="M 11.946285714285713 10.910857142857143  L 11.428571428571429 9.142857142857142  L 10.910857142857143 10.910857142857143  L 9.142857142857142 11.428571428571429  L 10.910857142857143 11.946285714285713  L 11.428571428571429 13.714285714285714  L 11.946285714285713 11.946285714285713  L 13.714285714285714 11.428571428571429  L 11.946285714285713 10.910857142857143  Z " stroke-width="0" stroke-dasharray="0" stroke="rgba(255, 255, 255, 0)" fill="none" transform="matrix(1 0 0 1 618 837 )" class="stroke" mask="url(#Clip66)" />
    <path d="M 6.748571428571428 5.822857142857143  L 5.714285714285714 2.2857142857142856  L 4.68 5.822857142857144  L 1.1428571428571428 6.857142857142857  L 4.680000000000001 7.8914285714285715  L 5.714285714285714 11.428571428571429  L 6.748571428571429 7.891428571428571  L 10.285714285714286 6.857142857142857  L 6.748571428571428 5.822857142857143  Z " stroke-width="0" stroke-dasharray="0" stroke="rgba(255, 255, 255, 0)" fill="none" transform="matrix(1 0 0 1 618 837 )" class="stroke" mask="url(#Clip66)" />
  </g>
</svg>