<?xml version="1.0" encoding="utf-8"?>
<svg version="1.1" xmlns:xlink="http://www.w3.org/1999/xlink" width="16px" height="16px" xmlns="http://www.w3.org/2000/svg">
  <defs>
    <pattern id="BGPattern" patternUnits="userSpaceOnUse" alignment="0 0" imageRepeat="None" />
    <mask fill="white" id="Clip68">
      <path d="M 13 16  L 3 16  C 1.32000000000005 16  0 14.680000000000007  0 13  L 0 3  C 0 1.3199999999999932  1.32000000000005 0  3 0  L 13 0  C 14.67999999999995 0  16 1.3199999999999932  16 3  L 16 13  C 16 14.680000000000007  14.67999999999995 16  13 16  Z M 11.52431249999995 9.632929687499995  C 11.52431249999995 9.632929687499995  11.365499999999997 9.703125  11.203195312500043 9.703125  C 10.529999999999973 9.703125  9.984304687499957 9.157429687499985  9.984304687499957 8.48432812499999  C 9.984328125000047 7.811085937500025  10.530023437499949 7.265601562500024  11.203218750000019 7.265601562500024  C 11.370398437499944 7.265601562500024  11.524874999999952 7.334390625000026  11.524874999999952 7.334390625000026  C 11.760398437500044 7.439203125000006  11.953125 7.595320312500007  11.953125 7.337531249999984  L 11.953125 5.4843281249999905  C 11.953125 5.226539062500024  11.742304687499995 5.015531249999981  11.484328125000047 5.015531249999981  L 9.631218750000016 5.015531249999981  C 9.373429687499993 5.015531249999981  9.592265624999982 4.811835937500007  9.659390625000015 4.562906250000026  C 9.659390625000015 4.562906250000026  9.703054687499957 4.400531249999972  9.703054687499957 4.265531249999981  C 9.703054687499957 3.592429687499987  9.157382812500032 3.0468281249999905  8.484351562500024 3.0468281249999905  C 7.8113203125000155 3.0468281249999905  7.265648437499976 3.592429687499987  7.265648437499976 4.265531249999981  C 7.265648437499976 4.422703124999998  7.3051406250000355 4.56412499999999  7.3051406250000355 4.56412499999999  C 7.374539062500048 4.812445312500017  7.595296875000031 5.015531249999981  7.337507812500007 5.015531249999981  L 5.484375 5.015531249999981  C 5.226585937499976 5.015531249999981  5.015578125000047 5.226539062500024  5.015578125000047 5.4843281249999905  L 5.015578125000047 7.431187500000021  C 5.015578125000047 7.689000000000021  4.821773437500042 7.441804687499996  4.584867187499981 7.340039062500011  C 4.584867187499981 7.340039062500011  4.4112656250000555 7.265601562500024  4.265484375000028 7.265601562500024  C 3.5924765624999964 7.265601562500024  3.046781249999981 7.811109375000001  3.046781249999981 8.484304687500014  C 3.046781249999981 9.157406250000008  3.5924765624999964 9.703101562500024  4.265484375000028 9.703101562500024  C 4.384289062499988 9.703101562500024  4.5819140625000045 9.621867187500015  4.5819140625000045 9.621867187500015  C 4.820390624999959 9.52375781249998  5.015578125000047 9.279539062500021  5.015578125000047 9.537421875000007  L 5.015578125000047 11.484375  C 5.015578125000047 11.742093749999981  5.226585937499976 11.953101562500024  5.484375 11.953101562500024  L 7.337484375000031 11.953101562500024  C 7.595273437500055 11.953101562500024  7.438875000000053 11.760445312499996  7.333828124999968 11.525085937500023  C 7.333828124999968 11.525085937500023  7.265648437499976 11.372273437499985  7.265648437499976 11.203101562500024  C 7.265648437499976 10.529999999999973  7.8113203125000155 9.984304687500014  8.484351562500024 9.984304687500014  C 9.157382812500032 9.984304687500014  9.703054687499957 10.529999999999973  9.703054687499957 11.203101562500024  C 9.703054687499957 11.384015625000018  9.638156249999952 11.526562500000011  9.638156249999952 11.526562500000011  C 9.531187499999987 11.761218750000012  9.373406250000016 11.953101562500024  9.63119531250004 11.953101562500024  L 11.484304687499957 11.953101562500024  C 11.742281250000019 11.953101562500024  11.953101562500024 11.742093749999981  11.953101562500024 11.484375  L 11.953101562500024 9.631101562500021  C 11.953101562500024 9.373289062500021  11.760187500000029 9.528914062500007  11.52431249999995 9.632929687499995  Z " fill-rule="evenodd" />
    </mask>
  </defs>
  <g transform="matrix(1 0 0 1 -842 -837 )">
    <path d="M 13 16  L 3 16  C 1.32000000000005 16  0 14.680000000000007  0 13  L 0 3  C 0 1.3199999999999932  1.32000000000005 0  3 0  L 13 0  C 14.67999999999995 0  16 1.3199999999999932  16 3  L 16 13  C 16 14.680000000000007  14.67999999999995 16  13 16  Z M 11.52431249999995 9.632929687499995  C 11.52431249999995 9.632929687499995  11.365499999999997 9.703125  11.203195312500043 9.703125  C 10.529999999999973 9.703125  9.984304687499957 9.157429687499985  9.984304687499957 8.48432812499999  C 9.984328125000047 7.811085937500025  10.530023437499949 7.265601562500024  11.203218750000019 7.265601562500024  C 11.370398437499944 7.265601562500024  11.524874999999952 7.334390625000026  11.524874999999952 7.334390625000026  C 11.760398437500044 7.439203125000006  11.953125 7.595320312500007  11.953125 7.337531249999984  L 11.953125 5.4843281249999905  C 11.953125 5.226539062500024  11.742304687499995 5.015531249999981  11.484328125000047 5.015531249999981  L 9.631218750000016 5.015531249999981  C 9.373429687499993 5.015531249999981  9.592265624999982 4.811835937500007  9.659390625000015 4.562906250000026  C 9.659390625000015 4.562906250000026  9.703054687499957 4.400531249999972  9.703054687499957 4.265531249999981  C 9.703054687499957 3.592429687499987  9.157382812500032 3.0468281249999905  8.484351562500024 3.0468281249999905  C 7.8113203125000155 3.0468281249999905  7.265648437499976 3.592429687499987  7.265648437499976 4.265531249999981  C 7.265648437499976 4.422703124999998  7.3051406250000355 4.56412499999999  7.3051406250000355 4.56412499999999  C 7.374539062500048 4.812445312500017  7.595296875000031 5.015531249999981  7.337507812500007 5.015531249999981  L 5.484375 5.015531249999981  C 5.226585937499976 5.015531249999981  5.015578125000047 5.226539062500024  5.015578125000047 5.4843281249999905  L 5.015578125000047 7.431187500000021  C 5.015578125000047 7.689000000000021  4.821773437500042 7.441804687499996  4.584867187499981 7.340039062500011  C 4.584867187499981 7.340039062500011  4.4112656250000555 7.265601562500024  4.265484375000028 7.265601562500024  C 3.5924765624999964 7.265601562500024  3.046781249999981 7.811109375000001  3.046781249999981 8.484304687500014  C 3.046781249999981 9.157406250000008  3.5924765624999964 9.703101562500024  4.265484375000028 9.703101562500024  C 4.384289062499988 9.703101562500024  4.5819140625000045 9.621867187500015  4.5819140625000045 9.621867187500015  C 4.820390624999959 9.52375781249998  5.015578125000047 9.279539062500021  5.015578125000047 9.537421875000007  L 5.015578125000047 11.484375  C 5.015578125000047 11.742093749999981  5.226585937499976 11.953101562500024  5.484375 11.953101562500024  L 7.337484375000031 11.953101562500024  C 7.595273437500055 11.953101562500024  7.438875000000053 11.760445312499996  7.333828124999968 11.525085937500023  C 7.333828124999968 11.525085937500023  7.265648437499976 11.372273437499985  7.265648437499976 11.203101562500024  C 7.265648437499976 10.529999999999973  7.8113203125000155 9.984304687500014  8.484351562500024 9.984304687500014  C 9.157382812500032 9.984304687500014  9.703054687499957 10.529999999999973  9.703054687499957 11.203101562500024  C 9.703054687499957 11.384015625000018  9.638156249999952 11.526562500000011  9.638156249999952 11.526562500000011  C 9.531187499999987 11.761218750000012  9.373406250000016 11.953101562500024  9.63119531250004 11.953101562500024  L 11.484304687499957 11.953101562500024  C 11.742281250000019 11.953101562500024  11.953101562500024 11.742093749999981  11.953101562500024 11.484375  L 11.953101562500024 9.631101562500021  C 11.953101562500024 9.373289062500021  11.760187500000029 9.528914062500007  11.52431249999995 9.632929687499995  Z " fill-rule="nonzero" fill="rgba(239, 75, 88, 1)" stroke="none" transform="matrix(1 0 0 1 842 837 )" class="fill" />
    <path d="M 13 16  L 3 16  C 1.32000000000005 16  0 14.680000000000007  0 13  L 0 3  C 0 1.3199999999999932  1.32000000000005 0  3 0  L 13 0  C 14.67999999999995 0  16 1.3199999999999932  16 3  L 16 13  C 16 14.680000000000007  14.67999999999995 16  13 16  Z " stroke-width="0" stroke-dasharray="0" stroke="rgba(255, 255, 255, 0)" fill="none" transform="matrix(1 0 0 1 842 837 )" class="stroke" mask="url(#Clip68)" />
    <path d="M 11.52431249999995 9.632929687499995  C 11.52431249999995 9.632929687499995  11.365499999999997 9.703125  11.203195312500043 9.703125  C 10.529999999999973 9.703125  9.984304687499957 9.157429687499985  9.984304687499957 8.48432812499999  C 9.984328125000047 7.811085937500025  10.530023437499949 7.265601562500024  11.203218750000019 7.265601562500024  C 11.370398437499944 7.265601562500024  11.524874999999952 7.334390625000026  11.524874999999952 7.334390625000026  C 11.760398437500044 7.439203125000006  11.953125 7.595320312500007  11.953125 7.337531249999984  L 11.953125 5.4843281249999905  C 11.953125 5.226539062500024  11.742304687499995 5.015531249999981  11.484328125000047 5.015531249999981  L 9.631218750000016 5.015531249999981  C 9.373429687499993 5.015531249999981  9.592265624999982 4.811835937500007  9.659390625000015 4.562906250000026  C 9.659390625000015 4.562906250000026  9.703054687499957 4.400531249999972  9.703054687499957 4.265531249999981  C 9.703054687499957 3.592429687499987  9.157382812500032 3.0468281249999905  8.484351562500024 3.0468281249999905  C 7.8113203125000155 3.0468281249999905  7.265648437499976 3.592429687499987  7.265648437499976 4.265531249999981  C 7.265648437499976 4.422703124999998  7.3051406250000355 4.56412499999999  7.3051406250000355 4.56412499999999  C 7.374539062500048 4.812445312500017  7.595296875000031 5.015531249999981  7.337507812500007 5.015531249999981  L 5.484375 5.015531249999981  C 5.226585937499976 5.015531249999981  5.015578125000047 5.226539062500024  5.015578125000047 5.4843281249999905  L 5.015578125000047 7.431187500000021  C 5.015578125000047 7.689000000000021  4.821773437500042 7.441804687499996  4.584867187499981 7.340039062500011  C 4.584867187499981 7.340039062500011  4.4112656250000555 7.265601562500024  4.265484375000028 7.265601562500024  C 3.5924765624999964 7.265601562500024  3.046781249999981 7.811109375000001  3.046781249999981 8.484304687500014  C 3.046781249999981 9.157406250000008  3.5924765624999964 9.703101562500024  4.265484375000028 9.703101562500024  C 4.384289062499988 9.703101562500024  4.5819140625000045 9.621867187500015  4.5819140625000045 9.621867187500015  C 4.820390624999959 9.52375781249998  5.015578125000047 9.279539062500021  5.015578125000047 9.537421875000007  L 5.015578125000047 11.484375  C 5.015578125000047 11.742093749999981  5.226585937499976 11.953101562500024  5.484375 11.953101562500024  L 7.337484375000031 11.953101562500024  C 7.595273437500055 11.953101562500024  7.438875000000053 11.760445312499996  7.333828124999968 11.525085937500023  C 7.333828124999968 11.525085937500023  7.265648437499976 11.372273437499985  7.265648437499976 11.203101562500024  C 7.265648437499976 10.529999999999973  7.8113203125000155 9.984304687500014  8.484351562500024 9.984304687500014  C 9.157382812500032 9.984304687500014  9.703054687499957 10.529999999999973  9.703054687499957 11.203101562500024  C 9.703054687499957 11.384015625000018  9.638156249999952 11.526562500000011  9.638156249999952 11.526562500000011  C 9.531187499999987 11.761218750000012  9.373406250000016 11.953101562500024  9.63119531250004 11.953101562500024  L 11.484304687499957 11.953101562500024  C 11.742281250000019 11.953101562500024  11.953101562500024 11.742093749999981  11.953101562500024 11.484375  L 11.953101562500024 9.631101562500021  C 11.953101562500024 9.373289062500021  11.760187500000029 9.528914062500007  11.52431249999995 9.632929687499995  Z " stroke-width="0" stroke-dasharray="0" stroke="rgba(255, 255, 255, 0)" fill="none" transform="matrix(1 0 0 1 842 837 )" class="stroke" mask="url(#Clip68)" />
  </g>
</svg>